<!--?xml version="1.0" encoding="utf-8"?-->
<!-- Generator: Adobe Illustrator 16.0.0, SVG Export Plug-In . SVG Version: 6.00 Build 0)  -->

<svg version="1.1" id="Layer_1" xmlns="http://www.w3.org/2000/svg" xmlns:xlink="http://www.w3.org/1999/xlink" x="0px" y="0px" width="300px" height="300px" viewBox="0 0 500 500" enable-background="new 0 0 500 500" xml:space="preserve">
<g>
	<path fill="none" stroke="#29235C" stroke-width="25" stroke-linecap="round" stroke-linejoin="round" d="M249.138,116.362
		c5.014-5.211,8.542-8.832,12.068-12.456c9.525-9.786,20.826-17.525,33.751-23.02c12.764-5.432,27.124-8.669,42.886-9.315
		c3.985,0.164,7.965,0.497,11.919,1.015c3.955,0.518,7.887,1.22,11.772,2.112c3.589,0.828,7.141,1.817,10.636,2.978
		s6.937,2.486,10.3,3.984c6.275,2.792,12.29,6.177,17.919,10.114c5.632,3.937,10.875,8.424,15.638,13.374
		c4.566,4.75,8.688,9.923,12.307,15.43c3.616,5.506,6.73,11.344,9.295,17.412c2.571,6.087,4.59,12.407,6.046,18.854
		c1.452,6.446,2.346,13.02,2.729,19.616c0.202,3.462,0.262,6.931,0.192,10.398c-0.071,3.464-0.273,6.93-0.596,10.382
		c-0.479,5.132-1.225,10.236-2.208,15.298c-0.983,5.059-2.203,10.072-3.629,15.026c-2.227,7.735-4.96,15.326-8.106,22.736
		c-3.143,7.412-6.704,14.646-10.608,21.686c-2.371,4.275-4.87,8.479-7.488,12.605c-2.618,4.128-5.354,8.182-8.214,12.148
		c-5.366,7.444-11.158,14.582-17.274,21.425c-6.118,6.842-12.558,13.392-19.219,19.707c-6.747,6.398-13.722,12.556-20.847,18.53
		c-7.124,5.974-14.399,11.768-21.779,17.425c-5.664,4.339-11.383,8.601-17.154,12.796c-5.77,4.196-11.586,8.33-17.439,12.405
		c-6.919,4.824-13.891,9.573-20.901,14.265c-7.01,4.69-14.06,9.32-21.14,13.904c-14.163-9.167-28.204-18.522-42.044-28.169
		c-11.707-8.157-23.269-16.521-34.591-25.201c-4.782-3.666-9.52-7.388-14.2-11.177c-4.68-3.791-9.304-7.652-13.858-11.595
		c-2.476-2.145-4.931-4.313-7.361-6.51c-2.429-2.196-4.834-4.419-7.21-6.674c-6.66-6.315-13.1-12.865-19.218-19.707
		c-6.118-6.843-11.908-13.98-17.276-21.425c-2.857-3.967-5.593-8.021-8.214-12.148c-2.616-4.127-5.114-8.33-7.487-12.605
		c-3.905-7.04-7.464-14.273-10.609-21.686c-3.146-7.41-5.874-15.001-8.104-22.736c-1.428-4.954-2.646-9.968-3.631-15.026
		c-0.979-5.062-1.729-10.166-2.208-15.298c-0.643-6.906-0.805-13.856-0.403-20.778c0.387-6.659,1.294-13.293,2.771-19.799
		c1.453-6.383,3.457-12.642,6.006-18.673c2.564-6.068,5.678-11.906,9.297-17.412c3.614-5.505,7.735-10.68,12.302-15.43
		c4.764-4.95,10.01-9.438,15.64-13.374c5.629-3.938,11.642-7.322,17.919-10.114c7.009-3.12,14.342-5.501,21.828-7.164
		c7.492-1.664,15.135-2.61,22.8-2.925c15.762,0.646,30.122,3.884,42.889,9.315c12.921,5.494,24.222,13.233,33.751,23.02
		c0.233,0.243,0.473,0.487,0.708,0.731c0.295,0.307,0.586,0.614,0.874,0.926c4.18,4.489,7.953,9.357,11.291,14.503
		c4.033,6.215,7.432,12.837,10.202,19.708c1.95,4.843,3.591,9.812,4.944,14.854c0.806,3.003,1.512,6.033,2.106,9.083
		c1.177,6.004,1.941,12.092,2.256,18.199c0.199,3.856,0.22,7.723,0.065,11.581c-0.282,6.938-1.132,13.855-2.492,20.668
		c-1.873,9.382-4.709,18.561-8.264,27.445c-3.292,8.233-7.2,16.209-11.551,23.934c-5.27,9.354-11.196,18.334-17.558,26.983
		c-9.394,12.769-19.743,24.815-30.667,36.302c-8.246,8.671-16.818,17.021-38.021,36.649" class="hQXGGSlH_0"></path>
	<path fill="none" stroke="#29235C" stroke-width="25" stroke-linecap="round" stroke-linejoin="round" d="M207.157,180.89
		c0-24.863-20.157-45.02-45.02-45.02c-24.867,0-45.021,20.156-45.021,45.02c0,24.864,20.154,45.021,45.021,45.021
		C187,225.911,207.157,205.754,207.157,180.89z" class="hQXGGSlH_1"></path>
</g>
<style>.hQXGGSlH_0{stroke-dasharray:1495 1497;stroke-dashoffset:1496;animation:hQXGGSlH_draw 1500ms linear 0ms forwards;}.hQXGGSlH_1{stroke-dasharray:283 285;stroke-dashoffset:284;animation:hQXGGSlH_draw 1500ms linear 0ms forwards;}@keyframes hQXGGSlH_draw{100%{stroke-dashoffset:0;}}@keyframes hQXGGSlH_fade{0%{stroke-opacity:1;}92.98245614035088%{stroke-opacity:1;}100%{stroke-opacity:0;}}</style></svg>
